<?xml version="1.0" standalone="no"?>
<!DOCTYPE svg PUBLIC "-//W3C//DTD SVG 20010904//EN"
 "http://www.w3.org/TR/2001/REC-SVG-20010904/DTD/svg10.dtd">
<svg version="1.0" xmlns="http://www.w3.org/2000/svg"
 width="512.000000pt" height="512.000000pt" viewBox="0 0 512.000000 512.000000"
 preserveAspectRatio="xMidYMid meet">

<g transform="translate(0.000000,512.000000) scale(0.100000,-0.100000)"
fill="#ffffff" stroke="none">
<path d="M3320 5109 c-14 -5 -34 -22 -44 -36 -23 -32 -30 -129 -46 -688 -6
-208 -12 -380 -13 -381 -7 -7 -270 -36 -442 -49 -393 -29 -1269 -64 -1282 -52
-3 4 -10 59 -14 123 -12 181 -43 307 -102 417 -42 80 -80 111 -128 104 -36 -5
-37 -4 -43 32 -16 101 -114 224 -221 277 -53 26 -70 29 -150 29 -80 -1 -97 -4
-156 -32 -85 -42 -148 -98 -184 -164 -15 -30 -43 -72 -61 -94 -69 -86 -99
-180 -92 -288 14 -223 242 -380 468 -323 120 31 265 138 327 244 14 23 28 42
32 42 7 0 27 -211 34 -345 l2 -40 -150 -7 c-200 -9 -358 -25 -480 -49 -181
-36 -336 -100 -371 -154 -22 -33 -11 -77 25 -98 35 -21 55 -21 84 -3 52 33
241 53 622 65 149 5 274 6 279 3 16 -9 -17 -1555 -33 -1574 -4 -5 -94 -24
-201 -43 -378 -69 -833 -176 -862 -202 -27 -25 -24 -89 5 -108 21 -13 47 -12
268 10 268 27 706 65 755 65 l31 0 6 -348 c8 -447 28 -700 82 -1022 42 -251
69 -359 97 -387 54 -54 149 -33 185 41 15 33 15 43 -10 198 -63 385 -97 865
-97 1360 l0 177 43 5 c127 16 1774 92 1784 82 7 -7 21 -280 52 -1011 26 -607
26 -608 56 -643 33 -38 94 -38 132 1 l28 27 7 223 c3 122 9 429 12 682 4 253
9 523 12 601 l6 140 369 17 c407 19 976 54 1026 62 37 6 78 51 88 93 9 42 -21
109 -57 128 -45 23 -431 44 -964 51 l-461 6 -7 75 c-3 41 -6 213 -6 381 0 168
-5 470 -11 670 -5 200 -7 366 -4 369 4 4 130 8 282 10 294 5 455 -6 633 -39
207 -40 239 -37 274 22 28 47 15 90 -42 139 -92 81 -244 136 -446 161 -109 13
-490 7 -630 -11 -44 -5 -81 -8 -83 -6 -2 2 -10 133 -18 292 -20 405 -34 643
-41 683 -8 47 -30 78 -66 90 -36 13 -54 13 -88 0z m-2416 -459 c65 -31 91 -79
91 -164 0 -55 -6 -82 -24 -120 -66 -133 -206 -202 -333 -164 -47 14 -98 68
-99 106 -3 68 9 132 24 132 16 0 72 58 126 132 44 58 104 98 150 98 14 0 43
-9 65 -20z m2320 -1262 c7 -365 21 -833 31 -1019 l6 -106 -183 -7 c-410 -16
-993 -67 -1422 -124 l-209 -29 6 561 c3 309 11 656 18 773 l12 212 61 5 c34 3
216 8 406 11 398 6 625 18 940 50 124 12 248 23 276 24 l51 1 7 -352z"/>
<path d="M2753 3376 c-67 -23 -185 -139 -290 -285 -1 -2 -24 16 -50 40 -125
115 -238 189 -290 189 -45 0 -83 -37 -83 -82 0 -29 15 -48 141 -170 l142 -136
-66 -83 c-127 -159 -165 -264 -112 -313 66 -61 118 -37 245 110 l95 111 100
-103 c111 -115 159 -143 241 -144 42 0 55 4 77 28 34 36 36 86 4 133 -12 19
-61 64 -107 101 -46 37 -103 87 -127 110 l-42 43 129 137 c152 161 165 188
127 265 -21 46 -82 68 -134 49z"/>
<path d="M4645 1622 c-52 -24 -78 -56 -200 -235 -55 -80 -103 -147 -106 -147
-4 0 -50 29 -102 65 -120 82 -315 185 -351 185 -43 0 -76 -41 -76 -93 0 -50
16 -68 120 -137 129 -85 281 -203 276 -215 -2 -6 -36 -63 -76 -126 -138 -219
-222 -429 -206 -514 13 -68 109 -111 149 -67 9 10 34 56 56 102 69 151 251
460 269 460 4 0 43 -31 87 -70 88 -76 163 -119 222 -127 32 -4 45 0 71 22 78
66 15 188 -163 316 -41 29 -75 57 -75 61 0 20 160 229 216 283 76 73 95 120
71 177 -29 68 -108 94 -182 60z"/>
<path d="M2501 1489 c-24 -5 -62 -21 -84 -36 -22 -16 -67 -42 -100 -60 -122
-65 -192 -165 -224 -318 -21 -105 -8 -200 42 -301 42 -85 102 -144 188 -184
121 -57 257 -61 392 -12 195 69 306 227 307 436 1 140 -46 243 -156 344 -72
65 -154 110 -236 128 -72 15 -68 15 -129 3z m159 -277 c82 -41 133 -162 109
-258 -17 -68 -84 -134 -162 -158 -122 -38 -223 7 -276 124 -38 83 -23 183 39
270 22 31 12 29 210 38 27 1 59 -5 80 -16z"/>
<path d="M483 1282 c-27 -4 -73 -49 -85 -84 -8 -23 -12 -25 -28 -16 -27 17
-105 -16 -163 -71 -148 -138 -184 -420 -80 -624 76 -151 254 -238 429 -209
227 38 374 228 374 484 0 152 -53 289 -150 389 -82 83 -217 143 -297 131z m21
-236 c145 -44 233 -227 185 -387 -31 -103 -154 -175 -262 -155 -71 13 -137
114 -153 233 -11 89 24 201 103 326 25 39 25 39 46 20 12 -11 49 -27 81 -37z"/>
</g>
</svg>
